<svg xmlns="http://www.w3.org/2000/svg" width="188.351" height="46.018" viewBox="0 0 188.351 46.018" fill="none">
  <path d="M 53.094 0 L 57.314 0 L 57.314 45.13 L 53.094 45.13 L 53.094 0 Z" fill="currentColor" fill-rule="nonzero"></path>
  <path d="M 109.632 15.013 L 113.853 15.013 L 113.853 40.889 C 113.96 40.889 114.088 40.891 114.233 40.894 C 117.832 40.978 132.473 41.685 132.473 22.716 L 132.473 15.013 L 136.694 15.013 L 136.694 22.174 C 136.694 36.434 128.919 45.099 116.205 45.099 L 109.635 45.099 L 109.635 15.013 L 109.632 15.013 Z" fill="currentColor" fill-rule="nonzero"></path>
  <path d="M 149.419 2.378 C 151.046 2.378 152.131 3.461 152.131 5.086 C 152.131 6.71 151.046 7.794 149.419 7.794 C 147.792 7.794 146.705 6.71 146.705 5.086 C 146.705 3.461 147.79 2.378 149.419 2.378 Z M 147.309 15.013 L 151.526 15.013 L 151.526 45.099 L 147.309 45.099 L 147.309 15.013 Z" fill="currentColor" fill-rule="nonzero"></path>
  <path d="M 175.817 14.352 C 180.278 14.352 183.832 14.832 187.085 16.034 L 187.085 20.248 C 184.974 19.525 180.517 18.261 175.274 18.261 C 169.369 18.261 166.355 19.645 166.355 22.414 C 166.355 29.335 188.351 25.605 188.351 36.434 C 188.351 42.09 183.952 45.761 174.732 45.761 C 170.27 45.761 166.655 45.34 163.401 44.075 L 163.401 39.865 C 165.511 40.647 170.03 41.911 175.332 41.911 C 181.237 41.911 184.132 39.684 184.132 36.918 C 184.132 29.998 162.135 33.667 162.135 22.838 C 162.135 17.181 166.653 14.353 175.815 14.353 L 175.817 14.352 Z" fill="currentColor" fill-rule="nonzero"></path>
  <path d="M 19.284 24.471 L 33.185 24.471 C 33.185 24.471 37.256 24.172 35.839 31.793 C 34.866 37.031 29.808 41.696 21.814 41.696 C 10.728 41.696 4.217 35.138 4.217 23.643 C 4.217 12.148 11.329 5.59 21.936 5.59 C 30.313 5.59 35.917 9.924 38.147 17.266 L 42.485 17.266 C 40.076 7.878 32.784 1.982 21.936 1.982 C 8.799 1.982 0 10.647 0 23.643 C 0 36.639 8.438 45.732 21.814 45.732 C 32.242 45.732 37.725 39.529 37.725 36.04 L 38.268 45.13 L 42.485 45.13 L 42.485 20.56 L 19.284 20.56 L 19.284 24.473 L 19.284 24.471 Z" fill="currentColor" fill-rule="nonzero"></path>
  <path d="M 88.963 15.078 C 87.316 14.466 85.531 14.135 83.66 14.135 C 81.07 14.135 78.626 14.771 76.467 15.89 C 72.289 18.057 69.188 22.043 68.2 26.806 C 67.981 27.862 67.864 28.954 67.864 30.075 C 67.864 31.196 67.986 32.328 68.212 33.4 C 69.179 37.978 72.097 41.834 76.045 44.036 C 78.304 45.297 80.901 46.018 83.662 46.018 C 85.969 46.018 88.222 45.496 90.273 44.54 C 92.606 43.453 94.673 41.8 96.257 39.691 C 96.309 39.623 96.363 39.558 96.413 39.488 L 93.4 37.309 L 93.229 37.186 C 92.73 37.874 92.159 38.497 91.537 39.054 C 89.384 40.986 86.58 42.094 83.663 42.094 C 81.415 42.094 79.407 41.446 77.728 40.344 C 75.073 38.601 73.261 35.699 72.715 32.283 L 99.026 32.283 L 99.026 29.88 C 98.947 22.976 94.835 17.257 88.969 15.082 L 88.963 15.078 Z M 72.634 28.47 C 73.058 24.823 74.901 21.695 77.679 19.846 C 79.367 18.724 81.391 18.064 83.658 18.064 C 85.152 18.064 86.548 18.361 87.819 18.889 C 91.55 20.435 94.147 24.035 94.657 28.472 L 72.632 28.472 L 72.634 28.47 Z" fill="currentColor" fill-rule="nonzero"></path>
</svg>