<svg xmlns="http://www.w3.org/2000/svg" width="2055" height="502" viewBox="0 0 2055 502" fill="none">
  <path d="M 579.277 0 L 625.326 0 L 625.326 492.317 L 579.277 492.317 L 579.277 0 Z" fill="currentColor" fill-rule="nonzero"></path>
  <path d="M 1196.138 163.78 L 1242.187 163.78 L 1242.187 446.051 C 1243.362 446.051 1244.753 446.07 1246.341 446.109 C 1285.61 447.029 1445.351 454.737 1445.351 247.802 L 1445.351 163.78 L 1491.4 163.78 L 1491.4 241.894 C 1491.4 397.457 1406.572 491.984 1267.856 491.984 L 1196.177 491.984 L 1196.177 163.78 L 1196.138 163.78 Z" fill="currentColor" fill-rule="nonzero"></path>
  <path d="M 1630.232 25.94 C 1647.986 25.94 1659.821 37.756 1659.821 55.48 C 1659.821 73.204 1647.986 85.02 1630.232 85.02 C 1612.479 85.02 1600.624 73.204 1600.624 55.48 C 1600.624 37.756 1612.459 25.94 1630.232 25.94 Z M 1607.208 163.78 L 1653.218 163.78 L 1653.218 491.984 L 1607.208 491.984 L 1607.208 163.78 Z" fill="currentColor" fill-rule="nonzero"></path>
  <path d="M 1918.244 156.561 C 1966.919 156.561 2005.698 161.804 2041.186 174.911 L 2041.186 220.883 C 2018.161 212.999 1969.525 199.208 1912.327 199.208 C 1847.897 199.208 1815.016 214.31 1815.016 244.515 C 1815.016 320.008 2055 279.317 2055 397.457 C 2055 459.158 2007.011 499.203 1906.409 499.203 C 1857.734 499.203 1818.289 494.605 1782.782 480.814 L 1782.782 434.88 C 1805.806 443.41 1855.108 457.201 1912.954 457.201 C 1977.383 457.201 2008.971 432.904 2008.971 402.739 C 2008.971 327.246 1768.967 367.271 1768.967 249.132 C 1768.967 187.431 1818.269 156.58 1918.225 156.58 L 1918.244 156.561 Z" fill="currentColor" fill-rule="nonzero"></path>
  <path d="M 210.395 266.953 L 362.063 266.953 C 362.063 266.953 406.485 263.686 391.025 346.828 C 380.404 403.971 325.223 454.854 238.005 454.854 C 117.043 454.854 46.01 383.313 46.01 257.915 C 46.01 132.518 123.607 60.977 239.337 60.977 C 330.73 60.977 391.867 108.26 416.204 188.35 L 463.527 188.35 C 437.25 85.939 357.693 21.617 239.337 21.617 C 95.997 21.617 0 116.144 0 257.915 C 0 399.687 92.059 498.89 238.005 498.89 C 351.775 498.89 411.6 431.222 411.6 393.153 L 417.517 492.317 L 463.527 492.317 L 463.527 224.287 L 210.395 224.287 L 210.395 266.973 L 210.395 266.953 Z" fill="currentColor" fill-rule="nonzero"></path>
  <path d="M 970.634 164.484 C 952.665 157.813 933.188 154.194 912.769 154.194 C 884.513 154.194 857.844 161.139 834.29 173.346 C 788.711 196.978 754.87 240.465 744.093 292.424 C 741.702 303.947 740.429 315.86 740.429 328.087 C 740.429 340.314 741.761 352.658 744.23 364.356 C 754.772 414.3 786.615 456.36 829.685 480.383 C 854.336 494.136 882.671 502 912.789 502 C 937.969 502 962.542 496.307 984.919 485.88 C 1010.374 474.025 1032.928 455.988 1050.211 432.983 C 1050.779 432.239 1051.367 431.535 1051.916 430.772 L 1019.035 407.003 L 1017.173 405.653 C 1011.726 413.165 1005.494 419.954 998.714 426.038 C 975.22 447.107 944.631 459.197 912.809 459.197 C 888.275 459.197 866.368 452.135 848.046 440.104 C 819.084 421.089 799.313 389.436 793.356 352.169 L 1080.427 352.169 L 1080.427 325.955 C 1079.565 250.638 1034.692 188.252 970.693 164.523 L 970.634 164.484 Z M 792.474 310.578 C 797.098 270.788 817.203 236.67 847.517 216.501 C 865.937 204.255 888.021 197.056 912.75 197.056 C 929.053 197.056 944.279 200.303 958.152 206.055 C 998.852 222.918 1027.187 262.2 1032.752 310.598 L 792.454 310.598 L 792.474 310.578 Z" fill="currentColor" fill-rule="nonzero"></path>
</svg>