<svg xmlns="http://www.w3.org/2000/svg" width="154" height="38" viewBox="0 0 154 38" fill="none">
  <path d="M 43.411 0 L 46.861 0 L 46.861 37.267 L 43.411 37.267 L 43.411 0 Z" fill="currentColor" fill-rule="nonzero"></path>
  <path d="M 89.638 12.398 L 93.088 12.398 L 93.088 33.765 C 93.177 33.765 93.281 33.766 93.4 33.769 C 96.343 33.839 108.313 34.422 108.313 18.758 L 108.313 12.398 L 111.764 12.398 L 111.764 18.311 C 111.764 30.086 105.407 37.242 95.012 37.242 L 89.64 37.242 L 89.64 12.398 L 89.638 12.398 Z" fill="currentColor" fill-rule="nonzero"></path>
  <path d="M 122.168 1.964 C 123.499 1.964 124.386 2.858 124.386 4.2 C 124.386 5.541 123.499 6.436 122.168 6.436 C 120.838 6.436 119.949 5.541 119.949 4.2 C 119.949 2.858 120.836 1.964 122.168 1.964 Z M 120.443 12.398 L 123.891 12.398 L 123.891 37.242 L 120.443 37.242 L 120.443 12.398 Z" fill="currentColor" fill-rule="nonzero"></path>
  <path d="M 143.752 11.851 C 147.399 11.851 150.305 12.248 152.965 13.24 L 152.965 16.72 C 151.239 16.123 147.595 15.079 143.308 15.079 C 138.48 15.079 136.016 16.223 136.016 18.509 C 136.016 24.224 154 21.144 154 30.086 C 154 34.757 150.404 37.788 142.865 37.788 C 139.217 37.788 136.261 37.44 133.6 36.396 L 133.6 32.919 C 135.326 33.565 139.02 34.609 143.355 34.609 C 148.183 34.609 150.551 32.77 150.551 30.486 C 150.551 24.772 132.565 27.801 132.565 18.859 C 132.565 14.188 136.26 11.853 143.75 11.853 L 143.752 11.851 Z" fill="currentColor" fill-rule="nonzero"></path>
  <path d="M 15.767 20.208 L 27.133 20.208 C 27.133 20.208 30.462 19.96 29.303 26.254 C 28.507 30.579 24.372 34.431 17.836 34.431 C 8.771 34.431 3.448 29.016 3.448 19.523 C 3.448 10.031 9.263 4.616 17.936 4.616 C 24.785 4.616 29.366 8.195 31.19 14.258 L 34.736 14.258 C 32.767 6.505 26.805 1.636 17.936 1.636 C 7.194 1.636 0 8.792 0 19.523 C 0 30.255 6.899 37.765 17.836 37.765 C 26.362 37.765 30.845 32.642 30.845 29.761 L 31.288 37.267 L 34.736 37.267 L 34.736 16.978 L 15.767 16.978 L 15.767 20.209 L 15.767 20.208 Z" fill="currentColor" fill-rule="nonzero"></path>
  <path d="M 72.739 12.451 C 71.392 11.946 69.932 11.672 68.402 11.672 C 66.285 11.672 64.286 12.198 62.521 13.122 C 59.105 14.911 56.569 18.203 55.762 22.136 C 55.583 23.008 55.487 23.91 55.487 24.835 C 55.487 25.761 55.587 26.695 55.772 27.581 C 56.562 31.361 58.948 34.545 62.176 36.364 C 64.023 37.405 66.147 38 68.404 38 C 70.291 38 72.132 37.569 73.809 36.78 C 75.717 35.882 77.407 34.517 78.702 32.776 C 78.745 32.719 78.789 32.666 78.83 32.608 L 76.366 30.809 L 76.226 30.707 C 75.818 31.275 75.351 31.789 74.843 32.25 C 73.082 33.845 70.79 34.76 68.405 34.76 C 66.567 34.76 64.925 34.225 63.552 33.315 C 61.381 31.875 59.9 29.479 59.453 26.658 L 80.966 26.658 L 80.966 24.674 C 80.902 18.973 77.539 14.25 72.743 12.454 L 72.739 12.451 Z M 59.387 23.51 C 59.734 20.498 61.241 17.915 63.512 16.389 C 64.893 15.462 66.548 14.917 68.401 14.917 C 69.622 14.917 70.763 15.162 71.803 15.598 C 74.853 16.874 76.977 19.848 77.394 23.511 L 59.386 23.511 L 59.387 23.51 Z" fill="currentColor" fill-rule="nonzero"></path>
</svg>